<?xml version="1.0" encoding="utf-8"?>
<!-- Generator: Adobe Illustrator 23.0.3, SVG Export Plug-In . SVG Version: 6.00 Build 0)  -->
<svg version="1.1" id="Layer_1" xmlns="http://www.w3.org/2000/svg" xmlns:xlink="http://www.w3.org/1999/xlink" x="0px" y="0px"
	 viewBox="0 0 1995 1000" style="enable-background:new 0 0 1995 1000;" xml:space="preserve">
<style type="text/css">
	.st0{fill:#333333;}
	.st1{font-family:'ProximaNova-Bold';}
	.st2{font-size:380.068px;}
	.st3{fill:#662D91;}
	.st4{fill:#1B1464;}
	.st5{fill:#29ABE2;}
	.st6{fill:#22B573;}
	.st7{fill:#FBB03B;}
	.st8{fill:#F15A24;}
	.st9{fill:#C1272D;}
	.st10{font-size:190.034px;}
</style>
<text transform="matrix(1 0 0 1 136.2544 466.6899)" class="st0 st1 st2">STUDENT</text>
<g>
	<rect x="119.95" y="523.67" class="st3" width="247.59" height="93.87"/>
	<rect x="367.54" y="523.67" class="st4" width="247.59" height="93.87"/>
	<rect x="615.13" y="523.67" class="st5" width="247.59" height="93.87"/>
	<rect x="862.71" y="523.67" class="st6" width="247.59" height="93.87"/>
	<rect x="1110.3" y="523.67" class="st7" width="247.59" height="93.87"/>
	<rect x="1357.89" y="523.67" class="st8" width="247.59" height="93.87"/>
	<rect x="1605.48" y="523.67" class="st9" width="247.59" height="93.87"/>
</g>
<text transform="matrix(1 0 0 1 176.9766 803.9961)" class="st0 st1 st10">B</text>
<polygon style="fill:none;" points="3381.28,247.55 3386.35,247.55 3386.35,247.55 3381.28,247.55 "/>
<text transform="matrix(1 0 0 1 675.9766 803.9961)" class="st0 st1 st10">O</text>
<text transform="matrix(1 0 0 1 1171.9766 803.9961)" class="st0 st1 st10">D</text>
<text transform="matrix(1 0 0 1 1667.9766 803.9961)" class="st0 st1 st10">Y</text>
</svg>
